<?xml version="1.0" encoding="utf-8"?>
<!-- Generator: Adobe Illustrator 24.2.3, SVG Export Plug-In . SVG Version: 6.00 Build 0)  -->
<svg version="1.1" id="Layer_1" xmlns="http://www.w3.org/2000/svg" xmlns:xlink="http://www.w3.org/1999/xlink" x="0px" y="0px"
	 viewBox="0 0 841.9 595.3" style="enable-background:new 0 0 841.9 595.3;" xml:space="preserve">
<style type="text/css">
	.st0{fill:#FAAA43;}
	.st1{fill:#263540;}
	.st2{font-family:'SymbolEF-BlackItalic';}
	.st3{font-size:103.6015px;}
	.st4{letter-spacing:10;}
</style>
<g>
	<path class="st0" d="M305.6,150c8.7-0.7,15.3-1,19.7-1c1.7,0,3.1,0.1,4.2,0.2c6.9,0.7,15.8,5.7,23.2,10.9c-0.2-2.7,0-3.8,0.3-4.7
		c1.8-5.3,8.5-7.6,23.3-8.1c1.1,0,2.3-0.1,3.4-0.1c8.6,0,22.9,1.4,26.8,5.4c3.6,3.6,2.4,10.7,1.6,13.8c2.5-0.1,5.3-0.2,8.3-0.3v0
		h9.6v0c3.1,0,5.8,0.1,8.3,0.3c-0.8-3.1-2-10.2,1.6-13.8c4-4,18.2-5.4,26.8-5.4c1.1,0,2.2,0,3.4,0.1c14.8,0.5,21.5,2.9,23.2,8.1
		c0.3,0.9,0.5,2,0.3,4.8c7.5-5.2,16.3-10.2,23.2-10.9c1.1-0.1,2.5-0.2,4.2-0.2c4.3,0,10.9,0.3,19.7,1c2.8-3.7,4.6-4.7,5.8-5.1
		c0-0.1,0-0.1,0.1-0.2c-34.2-24.7-76.2-39.2-121.6-39.2c-45.2,0-87.1,14.5-121.2,39c0,0.2,0.1,0.3,0.1,0.5
		C301.1,145.2,302.9,146.3,305.6,150z M588.8,190.6c-4.2,5.5-8.6,6-10.1,6c-0.3,0-0.5,0-0.7,0c-2.5-0.2-24.7-2.5-28.7-6.8
		c-1.3-1.5-2.1-3.5-2.5-6.5c-3.9-0.5-9.2-1.5-11.2-3.1c-1-0.8-1.7-1.7-2.3-2.6c-7.2-0.5-12.6-0.8-16.1-0.8c-1.5,0-2.4,0.1-2.9,0.1
		c-5.3,0.5-16.1,7.5-25,14.7l0.2,6c0.1,2-0.8,4-2.3,5.3c-0.2,0.1-0.4,0.3-0.8,0.6c14.2,12.7,16.2,24.5,16.4,29.5
		c4.9,6.3,9,15.1,12.4,26.3c4.5-2.6,9.2-2.9,11-2.9c0.7,0,1.3,0,1.5,0.1c0.9,0.1,2.1,0.2,15.7,6.6l0.2,0.1c0.7,0.3,1.4,0.6,2.1,1
		l1.8,0.8l-0.1,0.2c7.3,4.7,12,13.1,12,22.3c0,14.4-11.3,26.2-25.1,26.2c-1.5,0-2.9-0.1-4.4-0.4l-0.3,0.9l-5.2-2.6
		c-0.2-0.1-0.8-0.4-0.8-0.4c-1-0.5-2-1-3-1.5c-1,8.3-3.1,16.4-6.1,24.2c2.9,1.8,5.6,4.8,7.1,9.5c0.2,0.6,0.5,1.6,0.9,4.2
		c8.7,0.7,15.9,5.7,18.8,13c2.3,6,5.2,27.2,6.6,38.2c14.4,0.2,24.5,0.4,29.2,0.5c7,0.2,19.3,0.6,32.9,1
		c12.2-26.4,18.9-55.8,18.9-86.8C628.9,267.4,614,225,588.8,190.6z M301.1,360.5c2.8-7.3,10.1-12.3,18.8-13c0.5-2.6,0.7-3.6,0.9-4.2
		c1.6-4.6,4.3-7.7,7.1-9.5c-3-7.7-5.1-15.8-6.1-24.2c-1,0.5-2,1.1-3,1.6c0,0-0.5,0.2-0.7,0.3l-5.1,2.5l-0.3-0.9
		c-1.5,0.3-2.9,0.4-4.4,0.4c-13.9,0-25.1-11.7-25.1-26.2c0-9.1,4.7-17.6,12-22.3l-0.1-0.1l1.5-0.7c0.8-0.4,1.5-0.8,2.3-1.1l0.2-0.1
		c13.6-6.5,14.7-6.6,15.7-6.6c0.3,0,0.8-0.1,1.5-0.1c1.8,0,6.5,0.3,11,2.9c3.4-11.1,7.5-19.9,12.4-26.3c0.1-5,2.2-16.8,16.4-29.5
		c-0.4-0.3-0.6-0.5-0.8-0.6c-1.6-1.3-2.4-3.3-2.3-5.3l0.2-6c-9-7.2-19.7-14.2-25-14.7c-0.5,0-1.3-0.1-2.9-0.1
		c-3.5,0-8.9,0.3-16.1,0.8c-0.6,0.9-1.3,1.9-2.3,2.6c-2,1.6-7.3,2.6-11.2,3.1c-0.4,2.9-1.2,5-2.5,6.5c-4,4.4-26.2,6.6-28.7,6.8
		c-0.2,0-0.5,0-0.7,0c-1.5,0-6-0.5-10.3-6.3c-25.3,34.5-40.3,77-40.3,123c0,30.3,6.5,59.2,18.2,85.1c19.8-0.2,42-0.4,63.4-0.6
		C296.1,386.1,298.9,366.3,301.1,360.5z M438.7,190l-0.8-8.7c-5-0.5-12.5-0.7-15.7-0.8H420c-3.1,0.1-10.6,0.3-15.7,0.8l-0.8,8.7
		c4.6-0.8,9.6-1.3,12.8-1.5h9.6C429.1,188.7,434.1,189.2,438.7,190z"/>
	<g>
		<path class="st1" d="M165.4,404.1c0,0,194.7-1.9,224.5-1.9c26.6,0,164.3,1.3,186.9,1.9c22.6,0.6,99.6,3.2,99.6,3.2
			s-91.9,3.2-101.6,3.2c-9.7,0-199.2-1.9-214.7-1.3c-15.5,0.6-139.7-1.9-153.9-1.3C192,408.7,165.4,404.1,165.4,404.1z"/>
		<path class="st1" d="M239.5,96.8c1.2-0.7,1-3.6,3.8-6.6c2.8-3.1,13.4-8.5,13.4-8.5s-21.7,6.5-32,12.1c-10.3,5.6-12.7,9.2-12.7,9.2
			s9.3-3.8,15.3-6.2C231.8,95.1,238.3,97.5,239.5,96.8z M658.6,167.2l-67.1-8c-0.3-2.9-0.9-5.3-1.5-7.1c2.9,0.9,8.5,2.2,17.1,3.6
			c12.1,1.9,23.9,1.8,26.8,1.7c0.7,0.9,1.8,1.4,3.1,1.4c2.2,0,4-1.8,4-4c0-2.2-1.8-4-4-4c-1.7,0-3.1,1-3.7,2.5
			c-2.9-0.1-13.7-0.8-23.3-3.2c-9.7-2.4-19.4-7-22-8.3c-0.3-1.6-0.6-2.6-1.1-3.1c-1.6-1.7-11-4.7-13.9-4.8c-3-0.2-6.1,0-7.8,2.5
			c-1.2,1.6-1.9,5.5-2.2,7.3c-1.5,0.7-3,1.9-4.2,3.6c3-10.1,6.1-19.9,7-21.5c0.4-0.3,1.5-0.9,3-1.5c0.6,0.3,1.1,0.6,1.7,0.9
			c12,5.7,23.8,8.6,36.9,9.1c2.4,0.1,4.6,0.2,6.8,0.2c8.9,0,16-1.1,20.1-6.2c0.7-0.8,8-9.1,7-18.7c-1.1-10.4-10.5-16-19.2-20.6
			c-9.5-4.9-31.7-13.4-39.1-13.9c-7.2-0.5-20.3,4.3-24.4,19.2c-2.6,9.4-1.9,16.9,1.9,22.7c-1.6,0.7-2.7,1.2-3.1,1.4
			c-2.7,2-8.4,22.2-11,31.5c-1.1-0.1-1.8-0.2-2.1-0.1c-1.4,0.2-4.8,5.1-5,5.6c-11.2-0.9-21.5-1.5-25.8-1.1
			c-9.3,0.9-24.4,12.4-30,16.9l-0.2-5.2c0,0,0.1,0,0.1,0c0.4-0.3,0.7-0.7,0.7-1.1c1-6.4,0.7-7.4,0.6-7.7c-0.9-2.7-7.2-4.3-18.7-4.7
			c-13.1-0.5-24.6,2-26.5,3.9c-2.1,2.1-0.1,9.8,0,9.9c0.3,0.9,0.9,1.2,1.8,1.2c0.2,0,0.3,0,0.5,0l0.5,5c-3.5-0.6-9.8-1.1-20.7-1.1
			h-0.4c-11,0-17.2,0.5-20.7,1.1l0.5-5c0.2,0,0.4,0,0.5,0c0.8,0,1.4-0.3,1.8-1.2c0-0.1,2.1-7.7,0-9.9c-1.9-1.9-13.3-4.3-26.5-3.9
			c-11.5,0.4-17.8,2-18.7,4.7c-0.1,0.3-0.5,1.4,0.6,7.7c0.1,0.5,0.3,0.9,0.7,1.1c0,0,0.1,0,0.1,0L359,171c-5.6-4.5-20.7-16-30-16.9
			c-4.2-0.4-14.6,0.2-25.8,1.1c-0.3-0.4-3.6-5.4-5-5.6c-0.3,0-1.1,0-2.1,0.1c-2.6-9.4-8.3-29.5-11-31.5c-0.3-0.3-1.5-0.8-3.1-1.4
			c3.8-5.8,4.4-13.3,1.9-22.7c-4.1-14.9-17.1-19.7-24.4-19.2c-7.5,0.5-29.7,9-39.1,13.9c-8.7,4.5-18.1,10.2-19.2,20.6
			c-1,9.6,6.3,17.9,7,18.7c4.1,5.1,11.2,6.2,20.1,6.2c2.2,0,4.4-0.1,6.8-0.2c13.1-0.5,24.8-3.4,36.9-9.1c0.6-0.3,1.2-0.6,1.7-0.9
			c1.5,0.6,2.6,1.1,3,1.5c0.9,1.6,4,11.4,7,21.5c-1.2-1.7-2.6-2.9-4.2-3.6c-0.3-1.8-1-5.6-2.2-7.3c-1.8-2.5-4.8-2.6-7.8-2.5
			c-2.9,0.2-12.3,3.1-13.9,4.8c-0.5,0.5-0.8,1.6-1.1,3.1c-2.6,1.3-12.4,5.9-22,8.3c-9.7,2.4-20.4,3.1-23.3,3.2
			c-0.6-1.4-2-2.5-3.7-2.5c-2.2,0-4,1.8-4,4c0,2.2,1.8,4,4,4c1.2,0,2.3-0.6,3.1-1.4c2.9,0.1,14.7,0.1,26.8-1.7
			c8.6-1.3,14.1-2.7,17.1-3.6c-0.6,1.7-1.1,4.1-1.5,7.1l-67.1,8c0,0-6.5,0.6-4.7,12.3c1.7,11.6,7.3,12.3,7.3,12.3l68.7-8.2
			c3,6.2,6.6,8.1,8.6,8.1c0.1,0,0.2,0,0.3,0c0.2,0,23.1-2.6,25.5-5.2c1.1-1.3,1.4-4.4,1.4-7.6c4.4-0.3,11.8-1.6,13-2.5
			c1.5-1.2,2-3.4,2-3.4c0,0,0,0,0,0c10.1-0.8,19.1-1.3,22.9-0.9c9.2,0.9,26,14.4,29.6,17.4l-0.3,8.5c0,0.5,0.2,1,0.6,1.3
			c0.1,0.1,2.1,1.8,7.3,3c-23.4,16.7-21.1,32.6-21.1,32.6c-7.5,8.9-12.1,22.9-14.8,34c-4.4-7.8-13.5-7.4-14.7-7.3
			c-1.2,0.1-14,6.2-14,6.2l0,0c-7.6,3-13.1,10.7-13.1,19.8c0,11.7,9,21.2,20.1,21.2c2.7,0,5.3-0.6,7.6-1.6l0,0c0,0,0,0,0.1,0
			c0.2-0.1,0.5-0.2,0.7-0.3c4-1.9,7.1-4,9.5-6.2c0.5,14.7,4.2,26.9,8.5,36.2c-1.3,0.1-6.6,1-9,8.2c-0.3,0.9-0.8,3.6-1.4,7.6
			c-7.2-0.7-15.4,2.3-18.3,9.8c-2.7,7.1-6.7,40.5-6.9,41.9c-0.1,0.9,0.5,1.7,1.5,1.9c0.1,0,0.1,0,0.2,0c0.8,0,1.6-0.6,1.7-1.5
			c0-0.3,4.1-34.4,6.7-41.1c2.2-5.8,8.8-8.2,14.7-7.7c-1,6.4-2.2,14.7-3.3,22.7c-1.5,0.3-4.1,0.7-5.7,0.6c-2.3-0.1-5.1-2-6-1.7
			c-1,0.3-4,27.6-4,27.6l12.1,0.5c0.1,0.7,0.6,1.3,1.4,1.4c0.1,0,0.2,0,0.2,0c0.8,0,1.5-0.6,1.7-1.4c3-22.3,7.8-56.6,8.8-59.5
			c0.4-1.1,0.8-2,1.3-2.7c0.8,0,1.9,0.1,2.2,0.9c0.5,1.3-2.8,31.9-2.6,32.6c0.2,0.6,0.8,0.6,1,0.1c0.2-0.5,2.6-21.6,3.8-21.9
			c1.2-0.3,2.8,3,2.8,3s-1.4,16.5-1,16.8c0.4,0.3,0.9,0.8,1.4-0.3c0.5-1.1,2.6-13.6,3.6-13.5c0.9,0.1,3.9,3.3,5,3.4l-0.5,6.6
			c-2.8,2.1-4.3,4.5-4.3,7c0,2.3,1.2,4.2,2.3,5.4c-0.7,0.6-1.5,1.4-2.2,2.3c-2.8-1.2-13-1.3-13.9-1.3c-1.1,0-1.7,0.1-2.5,0.5
			c-0.8,0.4-3.3,20.1-3.3,20.1s13,1,16.5,0.6c0.3,0.4,0.7,0.6,1.2,0.6c0.1,0,0.1,0,0.2,0c0.9-0.1,1.6-0.9,1.5-1.8c0-0.2,0-0.5,0-0.7
			l32.2-0.1l1.6,2.9l45.9-0.9h0.4l45.9,0.9l1.6-2.9l32.2,0.1c0,0.2,0,0.5,0,0.7c-0.1,0.9,0.6,1.7,1.5,1.8c0.1,0,0.1,0,0.2,0
			c0.5,0,0.9-0.2,1.2-0.6c3.5,0.4,16.5-0.6,16.5-0.6s-2.6-19.6-3.3-20.1s-1.4-0.5-2.5-0.5c-0.9,0-11.1,0.1-13.9,1.3
			c-0.7-0.9-1.5-1.7-2.2-2.3c1.1-1.2,2.3-3.1,2.3-5.4c0-2.5-1.4-4.9-4.3-7l-0.5-6.6c1-0.1,4.1-3.3,5-3.4c1-0.1,3,12.4,3.6,13.5
			c0.5,1.1,1,0.6,1.4,0.3c0.4-0.3-1-16.8-1-16.8s1.6-3.3,2.8-3c1.2,0.3,3.6,21.3,3.8,21.9c0.2,0.5,0.8,0.5,1-0.1
			c0.2-0.6-3.1-31.3-2.6-32.6c0.3-0.8,1.4-0.9,2.2-0.9c0.5,0.7,0.9,1.6,1.3,2.7c1,3,5.8,37.2,8.8,59.5c0.1,0.8,0.8,1.4,1.7,1.4
			c0.1,0,0.1,0,0.2,0c0.8-0.1,1.3-0.7,1.4-1.4l12.1-0.5c0,0-3-27.3-4-27.6c-1-0.3-3.8,1.6-6,1.7c-1.5,0.1-4.1-0.3-5.7-0.6
			c-1.1-8-2.3-16.3-3.3-22.7c5.9-0.5,12.4,1.8,14.7,7.7c2.6,6.7,6.7,40.8,6.7,41.1c0.1,0.8,0.8,1.5,1.7,1.5c0.1,0,0.1,0,0.2,0
			c0.9-0.1,1.6-0.9,1.5-1.9c-0.2-1.4-4.2-34.8-6.9-41.9c-2.9-7.5-11.1-10.5-18.3-9.8c-0.6-3.9-1.2-6.7-1.4-7.6
			c-2.5-7.3-7.8-8.1-9-8.2c4.2-9.3,7.9-21.5,8.5-36.2c2.4,2.1,5.4,4.3,9.5,6.2c0.2,0.1,0.5,0.2,0.7,0.3c0,0,0,0,0.1,0l0,0
			c2.4,1,4.9,1.6,7.6,1.6c11.1,0,20.1-9.5,20.1-21.2c0-9.1-5.5-16.8-13.1-19.8l0,0c0,0-12.8-6.1-14-6.2c-1.2-0.1-10.2-0.5-14.7,7.3
			c-2.7-11.1-7.4-25.2-14.8-34c0,0,2.3-15.8-21.1-32.6c5.2-1.3,7.2-2.9,7.3-3c0.4-0.3,0.6-0.8,0.6-1.3l-0.3-8.5
			c3.6-3,20.4-16.4,29.6-17.4c3.7-0.4,12.7,0.1,22.9,0.9c0,0,0,0,0,0c0,0,0.5,2.3,2,3.4c1.1,0.9,8.5,2.3,13,2.5
			c0,3.2,0.2,6.3,1.4,7.6c2.4,2.6,25.3,5.2,25.5,5.2c0.1,0,0.2,0,0.3,0c2,0,5.5-1.9,8.6-8.1l68.7,8.2c0,0,5.6-0.6,7.3-12.3
			C665.1,167.8,658.6,167.2,658.6,167.2z M638,152.6c0.8,0,1.5,0.7,1.5,1.5c0,0.8-0.7,1.5-1.5,1.5c-0.8,0-1.5-0.7-1.5-1.5
			C636.4,153.3,637.1,152.6,638,152.6z M204.3,155.6c-0.8,0-1.5-0.7-1.5-1.5c0-0.8,0.7-1.5,1.5-1.5c0.8,0,1.5,0.7,1.5,1.5
			C205.9,155,205.2,155.6,204.3,155.6z M234.9,130.9c-13.1,0.5-20.4-0.1-24.2-4.9c0,0-0.1-0.1-0.1-0.1c-0.1-0.1-7.1-7.8-6.2-16.2
			c0.8-7.8,7.5-12.8,17.4-17.9c9.2-4.8,30.9-13.1,37.8-13.6c0.3,0,0.6,0,0.8,0c6.3,0,16.7,4.4,20.1,16.8c2.4,8.7,1.7,15.5-1.9,20.6
			c-0.9-0.3-1.9-0.7-3-1.1c1.2-1.6,2.9-5,2.9-11c0-9.1-4.5-15.3-4.5-15.3c1.1,4-1.4,13.8-8.2,17.1c-3.4,1.7-7,2.3-9.8,2.5
			c-6.9-2.2-12.7-3.8-14.2-3.7c-0.9,0.1-1.5,0.3-2,0.6c-6,2.5-1.6,9.4-1.6,9.4s-4.3,3.4-15,3.9c-10.7,0.4-15.5-2.6-15.5-2.6
			s3.3,10,8.4,11.9c5.1,1.8,21.8,2,32.6,0c8.6-1.6,15.5-4.5,18-5.6c0.9,0.3,1.8,0.6,2.6,0.9C258.1,127.8,247.2,130.4,234.9,130.9z
			 M258,141c1.1-0.8,6.6-2.7,9.9-3.5c0.7,0.1,1.4,0.4,1.9,1.1c0.7,1.1,1.2,3.6,1.5,5.3c-4.8,0.9-10.5,2.5-13.9,3.4
			C257.4,144.5,257.7,141.8,258,141z M238.3,152.9c-7.5,1.6-19.7,3.1-20.1,2.5c-0.3-0.6,1-1.4,1.4-1.5c0.4-0.1,14-1.9,23.6-4.5
			c5.9-1.6,9.2-3,10.7-3.9c-0.1,0.8-0.1,1.6-0.1,2.5C251.3,148.9,244.3,151.6,238.3,152.9z M282.4,185.3c-6.2-5.7-8.8-19-8.8-19
			s-2.7,1.2-7.1,2.7c-4.4,1.5-9.6-0.3-9.6-0.3s-0.5,2.3,1.5,9.1c1.6,5.5,4.6,8.7,6.6,10.3c-0.6,0.1-1.2,0.1-1.5,0.2
			c-0.9,0.1-5.5-2.5-8.4-14.4c-3-12.1,0-20.5,1-22.8c0,0,0.1,0,0.1-0.1c4.7-1.4,14.6-4.1,19.4-4.5c-0.8,2.6-1.8,7.4-0.5,14.9
			c2,10.9,5.5,19.2,9.9,23.3C284.4,184.9,283.5,185.1,282.4,185.3z M287.3,182.2c-3.7-3.5-7-11.4-8.8-21.3
			c-1.3-7.3-0.2-11.8,0.5-13.7c1.3,0.9,2.7,2.7,3.5,5c-0.6,1.1-1.4,4-0.5,10.8c1.1,8,4.5,13.7,5.4,15.2
			C287.5,179.7,287.4,181.1,287.3,182.2z M288.2,150.8c-1.7-5.7-7.2-24.6-8.8-27c-1-1.6-5.9-3.5-24.9-9.7
			c-5.2-1.7-11.1-3.6-12.4-4.3c-0.1-0.1-0.2-0.3-0.3-0.5c-0.1-0.5,0-1.2,0.8-1.7c5.4,0.8,37.8,11.5,40.3,13.2
			c1.5,1.6,6,15.9,9.7,29.3C291.2,150.4,289.6,150.6,288.2,150.8z M354,174.8c-2.3-0.2-20.9-10.2-24.7-10.8c-2-0.3-15,0.5-27.7,1.2
			c-0.1-0.6-0.3-1.2-0.5-1.8c-0.5-1.9-0.4-3.5-0.1-4.7c12-1,23.4-1.7,27.7-1.3c8.7,0.9,24.1,12.8,28.9,16.7
			C356.4,174.5,355.1,174.9,354,174.8z M307.5,302.2c-7.2,0-13-6.1-13-13.6s5.8-13.6,13-13.6s13,6.1,13,13.6
			S314.6,302.2,307.5,302.2z M326.7,288.6c-0.6,2.3-1.5,3.5-2,3.2c0,0,3.2-7.9-3.3-15.4c-6.5-7.5-17.8-4.7-17.8-4.7
			c-0.1-0.5,0.2-1.3,2.8-2.2c2.7-0.9,10.8-1.5,15.8,3.4C327.3,277.7,327.3,286.3,326.7,288.6z M344.4,284.2c-0.1,0-0.1,0-0.2,0
			c-0.2,0-0.4,0-0.7,0c-0.1,0-0.2,0-0.3,0c-0.2,0-0.4,0-0.6,0c-0.2,0-0.3,0-0.5,0c-0.2,0-0.4,0-0.6,0c-0.2,0-0.4,0-0.5,0
			c-0.2,0-0.4,0-0.6,0c-0.2,0-0.4,0-0.6,0c-0.2,0-0.4,0-0.6,0c-0.2,0-0.4,0-0.6,0c-0.2,0-0.4,0-0.5,0c-0.2,0-0.4,0-0.7,0
			c-0.2,0-0.3,0-0.5,0c-0.2,0-0.4,0-0.7,0c-0.2,0-0.3,0-0.4,0c-0.2,0-0.4,0-0.6,0c-0.1,0-0.3,0-0.4,0c-0.2,0-0.4,0-0.6,0
			c-0.1,0-0.2,0-0.3,0c-0.1,0-0.1,0-0.2,0c-0.2,0-0.5-0.1-0.7-0.1c-0.2,0-0.4-0.1-0.6-0.1c0,0-0.3-1-0.5-2.3
			c-0.1-0.5-0.2-0.9-0.2-1.5c-0.1-0.5-0.1-1-0.2-1.5c0,0,0-0.1,0-0.1c-0.1-1.5-0.1-3,0.4-3.9h12.9c0,0.9-0.1,1.8-0.1,2.7
			c0,2.3,0.1,4.6,0.3,6.9C344.8,284.1,344.6,284.2,344.4,284.2z M547.8,288.6c0,7.5-5.8,13.6-13,13.6s-13-6.1-13-13.6
			s5.8-13.6,13-13.6S547.8,281.1,547.8,288.6z M520,272.8c5-4.9,13.2-4.3,15.8-3.4c2.7,0.9,2.9,1.7,2.8,2.2c0,0-11.3-2.8-17.8,4.7
			c-6.5,7.5-3.3,15.4-3.3,15.4c-0.6,0.3-1.5-0.8-2-3.2C515,286.3,515,277.7,520,272.8z M497.5,274.5h12.9c0.5,0.8,0.5,2.3,0.4,3.9
			c0,0,0,0.1,0,0.1c0,0.5-0.1,1-0.2,1.5c-0.1,0.5-0.2,1-0.2,1.5c-0.3,1.4-0.5,2.3-0.5,2.3c-0.2,0-0.4,0.1-0.6,0.1
			c-0.2,0-0.4,0.1-0.7,0.1c-0.1,0-0.1,0-0.2,0c-0.1,0-0.2,0-0.3,0c-0.2,0-0.4,0-0.6,0c-0.1,0-0.3,0-0.4,0c-0.2,0-0.4,0-0.6,0
			c-0.1,0-0.3,0-0.4,0c-0.2,0-0.4,0-0.7,0c-0.2,0-0.3,0-0.5,0c-0.2,0-0.4,0-0.7,0c-0.2,0-0.4,0-0.5,0c-0.2,0-0.4,0-0.6,0
			c-0.2,0-0.4,0-0.6,0c-0.2,0-0.4,0-0.6,0c-0.2,0-0.4,0-0.6,0c-0.2,0-0.4,0-0.5,0c-0.2,0-0.4,0-0.6,0c-0.2,0-0.3,0-0.5,0
			c-0.2,0-0.4,0-0.6,0c-0.1,0-0.2,0-0.3,0c-0.2,0-0.5,0-0.7,0c-0.1,0-0.1,0-0.2,0c-0.2,0-0.5,0-0.7,0c0.2-2.3,0.3-4.6,0.3-6.9
			C497.6,276.3,497.5,275.4,497.5,274.5z M420,175.5h2.2c0,0,15.2,0.4,20.3,1.4l1.8,19.6c-7.3-2.5-22-3.1-22-3.1h-2.5
			c0,0-14.7,0.7-22,3.1l1.8-19.6C404.8,175.8,420,175.5,420,175.5z M360.9,158c0.5-0.4,3.5-2.1,15.6-2.5c13-0.5,22.4,2,23.9,2.9
			c0.3,0.9,0,3.5-0.3,5.2c-0.3-0.1-0.7-0.2-1-0.3c-3.2-0.9-9-2.5-17.2-2.7c-0.8,0-1.6,0-2.3,0c-8.3,0-15.1,1.2-18.2,1.8
			C361.1,160.4,360.9,158.6,360.9,158z M364.7,167.6c-0.8,0.6-1.3,20.8-1.5,26.6c-0.6,0.2-1.2,0.4-1.7,0.6l0.2-5.7
			c0.1-0.3,0.1-0.6,0-0.9l0.8-22.7c3.4-0.7,10.7-1.8,19.2-1.6c7.1,0.2,12.4,1.5,15.6,2.4l-2.8,29.8c-0.9-0.5-1.8-0.9-2.7-1.2
			c1.2-5.5,3.7-26.1,3-26.6c-0.8-0.6-7.9-1.7-8-1.5c-0.1,0.2-0.5,23.2-4,23.9c-3.5,0.7-7-0.5-7.3-1.4c-0.3-0.9,1.3-23.4,1.3-23.4
			C372.2,165.9,365.6,166.8,364.7,167.6z M382.6,199.5l-1.4,12.7c-3.2,1.9-6.2,4.1-9,6.5l2-19.5
			C375.5,198.8,378.5,198.4,382.6,199.5z M353.1,398.9c-5.5,0.3-10,2.6-11.8,3.9c0.5-3.7,4.1-5.2,4.7-5.4c1.1-0.2,16.5-3.2,28.5,0
			c0.2,0.1,1.6,0.6,2,2.8C373.5,399.4,359.9,398.4,353.1,398.9z M378.3,390.6c-0.1,0.7-0.6,1.4-1.2,1.9c0.2-1.6-0.5-3.7-2.5-4.6
			c-3.1-1.3-25.3-1.3-27.8-0.2c-1.8,0.8-2.4,3.3-1.9,5.2c-1-1.1-1.5-2.2-1.5-3.2c0.1-2.1,2.5-4,3.6-4.7c2.5-0.3,17.4-1.7,28.1,0
			C377.5,387.2,378.6,389.1,378.3,390.6z M378.4,378.4c-0.3,1.7-2,2.8-2.8,3.3c3.1-1.7,0.2-5.3-4-6.6c-4.2-1.3-16.8-1.5-21.8,1.4
			c-3.7,2.2-3.2,4-2.5,5.1c-0.1,0-0.3,0-0.4,0c-0.7-0.6-2.2-2.1-2.2-3.8c0-1.5,1.1-3.1,3.3-4.7c1.7-0.6,15.9-5.6,27.7-0.1
			C377.2,374.6,378.8,376.6,378.4,378.4z M349.2,369.3l4.2-56.9c5.7,10.9,14,20.3,24.1,27.3l-2.2,29.6
			C364.9,365.4,354,367.9,349.2,369.3z M406.9,386.4c0,0-8.6-31.2-7.4-31.9c1.1-0.6,2.6-0.8,3.2,0.2c0.6,1,4.4,23.1,4.7,26
			C407.7,383.6,408.2,386.8,406.9,386.4z M435.4,386.4c-1.3,0.5-0.8-2.7-0.5-5.7c0.3-2.9,4-25.1,4.7-26c0.6-1,2.1-0.8,3.2-0.2
			C444,355.1,435.4,386.4,435.4,386.4z M501,402.8c-1.8-1.3-6.3-3.6-11.8-3.9c-6.8-0.4-20.4,0.6-23.5,1.3c0.4-2.2,1.8-2.8,2-2.8
			c12-3.2,27.4-0.2,28.5,0C496.9,397.6,500.5,399,501,402.8z M499,389.7c0.1,1-0.4,2.1-1.5,3.2c0.5-1.9-0.1-4.4-1.9-5.2
			c-2.5-1.1-24.7-1.1-27.8,0.2c-2,0.8-2.7,3-2.5,4.6c-0.6-0.5-1-1.2-1.2-1.9c-0.3-1.5,0.8-3.5,3.1-5.6c10.7-1.6,25.6-0.2,28.1,0
			C496.5,385.8,498.8,387.7,499,389.7z M497.5,377.9c0,1.7-1.4,3.2-2.2,3.8c-0.1,0-0.3,0-0.4,0c0.7-1.2,1.2-2.9-2.5-5.1
			c-5-2.9-17.6-2.7-21.8-1.4c-4.2,1.3-7.1,4.8-4,6.6c-0.8-0.4-2.5-1.6-2.8-3.3c-0.3-1.9,1.2-3.9,2.7-5.3c11.8-5.5,26-0.5,27.7,0.1
			C496.4,374.8,497.5,376.4,497.5,377.9z M464.9,339.7c10.1-7,18.3-16.4,24.1-27.3l4.2,56.9c-4.8-1.5-15.8-3.9-26.1,0L464.9,339.7z
			 M493.8,277.2c0,15.4-4.8,29.7-13,41.5c13.2-21.3,12.1-39,11.7-39.7c-0.4-0.8-1-0.5-1.3,0.5c0,0-9.8,63.3-69.9,64.3h-0.4
			c-60.1-1-69.9-64.3-69.9-64.3c-0.3-1.1-0.9-1.3-1.3-0.5c-0.4,0.7-1.5,18.4,11.7,39.7c-8.2-11.8-13-26.1-13-41.5
			c0-40.1,32.6-72.8,72.7-72.9C461.2,204.4,493.8,237.1,493.8,277.2z M459.7,199.5c4.1-1.1,7.1-0.7,8.4-0.3l2,19.5
			c-2.8-2.4-5.9-4.5-9-6.5L459.7,199.5z M479.1,194.2c-0.2-5.8-0.7-26-1.5-26.6c-0.9-0.7-7.5-1.7-12.3-1.5c0,0,1.6,22.5,1.3,23.4
			c-0.3,0.9-3.8,2.1-7.3,1.4c-3.5-0.7-3.9-23.7-4-23.9c-0.1-0.2-7.2,0.9-8,1.5c-0.7,0.5,1.8,21.1,3,26.6c-0.9,0.4-1.8,0.8-2.7,1.2
			l-2.8-29.8c3.2-0.9,8.5-2.2,15.6-2.4c8.6-0.2,15.8,0.9,19.2,1.6l0.8,22.7c-0.1,0.3-0.1,0.6,0,0.9l0.2,5.7
			C480.4,194.6,479.8,194.4,479.1,194.2z M480.9,162.3c-3.1-0.6-9.8-1.8-18.2-1.8c-0.8,0-1.5,0-2.3,0c-8.2,0.2-14.1,1.8-17.2,2.7
			c-0.3,0.1-0.7,0.2-1,0.3c-0.3-1.6-0.6-4.3-0.3-5.2c1.5-0.9,10.9-3.3,23.9-2.9c12.2,0.4,15.1,2.1,15.6,2.5
			C481.4,158.6,481.2,160.4,480.9,162.3z M541.2,163.4c-0.2,0.7-0.3,1.3-0.5,1.8c-12.7-0.8-25.8-1.6-27.7-1.2
			c-3.9,0.6-22.5,10.7-24.7,10.8c-1.1,0.1-2.4-0.3-3.5-0.7c4.8-3.9,20.2-15.9,28.9-16.7c4.3-0.4,15.7,0.3,27.7,1.3
			C541.7,159.9,541.7,161.5,541.2,163.4z M572.6,138.6c0.4-0.6,1.1-0.9,1.9-1.1c3.3,0.7,8.7,2.7,9.9,3.5c0.3,0.8,0.6,3.5,0.7,6.3
			c-3.4-1-9.2-2.5-13.9-3.4C571.3,142.2,571.8,139.7,572.6,138.6z M561.7,95c3.4-12.4,13.7-16.8,20.1-16.8c0.3,0,0.6,0,0.8,0
			c6.9,0.5,28.6,8.8,37.8,13.6c9.8,5.1,16.6,10.1,17.4,17.9c0.9,8.3-6.1,16.1-6.2,16.2c0,0-0.1,0.1-0.1,0.1
			c-3.8,4.7-11.1,5.4-24.2,4.9c-12.2-0.5-23.2-3.1-34.4-8.2c0.8-0.3,1.7-0.6,2.6-0.9c2.5,1.1,9.4,4,18,5.6c10.8,2,27.5,1.8,32.6,0
			c5.1-1.8,8.4-11.9,8.4-11.9s-4.9,3-15.5,2.6c-10.7-0.4-15-3.9-15-3.9s4.5-6.9-1.6-9.4c-0.5-0.3-1.1-0.5-2-0.6
			c-1.5-0.1-7.3,1.5-14.2,3.7c-2.8-0.2-6.5-0.9-9.8-2.5c-6.8-3.3-9.3-13.2-8.2-17.1c0,0-4.5,6.3-4.5,15.3c0,6,1.7,9.4,2.9,11
			c-1.1,0.4-2.1,0.7-3,1.1C560,110.5,559.3,103.7,561.7,95z M549.6,150.2c3.7-13.4,8.2-27.8,9.7-29.3c2.6-1.8,34.9-12.4,40.3-13.2
			c0.8,0.5,0.9,1.3,0.8,1.7c-0.1,0.2-0.2,0.4-0.3,0.5c-1.3,0.6-7.2,2.6-12.4,4.3c-19,6.2-23.9,8.2-24.9,9.7
			c-1.6,2.4-7.1,21.3-8.8,27C552.7,150.6,551.1,150.4,549.6,150.2z M554.9,178.2c1-1.5,4.3-7.2,5.4-15.2c0.9-6.8,0.1-9.7-0.5-10.8
			c0.8-2.3,2.2-4.1,3.5-5c0.7,1.9,1.8,6.3,0.5,13.7c-1.8,9.9-5.1,17.8-8.8,21.3C554.9,181.1,554.8,179.7,554.9,178.2z M587.1,173.9
			c-2.9,12-7.5,14.5-8.4,14.4c-0.3,0-0.9-0.1-1.5-0.2c2-1.6,5-4.8,6.6-10.3c2-6.8,1.5-9.1,1.5-9.1s-5.2,1.8-9.6,0.3
			c-4.4-1.5-7.1-2.7-7.1-2.7s-2.6,13.3-8.8,19c-1-0.2-2-0.4-2.7-0.6c4.4-4,8-12.3,9.9-23.3c1.3-7.5,0.4-12.4-0.5-14.9
			c4.7,0.4,14.7,3.1,19.4,4.5c0,0,0.1,0,0.1,0.1C587.1,153.4,590.1,161.8,587.1,173.9z M588.3,145.4c1.6,0.9,4.8,2.3,10.7,3.9
			c9.6,2.6,23.2,4.4,23.6,4.5c0.4,0.1,1.7,0.9,1.4,1.5c-0.3,0.6-12.5-0.9-20.1-2.5c-6-1.3-13-4-15.6-5
			C588.4,147,588.3,146.2,588.3,145.4z M602.8,96.8c1.2,0.7,7.7-1.7,12.2,0.1c6,2.4,15.3,6.2,15.3,6.2s-2.4-3.6-12.7-9.2
			c-10.3-5.6-32-12.1-32-12.1s10.6,5.4,13.4,8.5S601.7,96.2,602.8,96.8z M577.2,154.6c-1.7,0.5-2.7,2.5-2.2,4.4
			c0.5,2,2.4,3.2,4.1,2.7c1.7-0.5,2.7-2.5,2.2-4.4C580.8,155.3,578.9,154.1,577.2,154.6z M421.4,212.3c-0.1,0-0.1,0-0.2,0
			c-0.1,0-0.1,0-0.2,0c-35.8,0-64.9,29.1-64.9,64.9s29.1,64.9,64.9,64.9c0.1,0,0.1,0,0.2,0c0.1,0,0.1,0,0.2,0
			c35.8,0,64.9-29.1,64.9-64.9S457.1,212.3,421.4,212.3z M421.2,338.8c-33.8-0.1-61.4-27.7-61.4-61.6c0-33.9,27.5-61.4,61.4-61.6
			c33.8,0.1,61.4,27.7,61.4,61.6C482.5,311.1,455,338.6,421.2,338.8z M424.4,313.6c-24.4-2.4-44-21.9-46.6-46.2
			c-0.7-6.3-0.2-12.4,1.2-18.2c0.2-0.7-0.8-1.1-1.2-0.5c-6.2,9-9.6,20-9.1,31.9c1.2,26.4,22.5,48.1,48.9,49.7
			c23.5,1.5,44-12.7,52-33c0.3-0.7-0.6-1.2-1.1-0.7C457.9,308.4,441.9,315.3,424.4,313.6z M265.1,154.6c-1.7-0.5-3.6,0.7-4.1,2.7
			c-0.5,2,0.4,4,2.2,4.4c1.7,0.5,3.6-0.7,4.1-2.7C267.8,157,266.8,155,265.1,154.6z"/>
	</g>
	<text transform="matrix(1 0 0 1 254.9763 494.4995)" class="st0 st2 st3 st4">Rydr</text>
</g>
</svg>
